<mxfile host="app.diagrams.net" modified="2022-01-24T07:16:08.115Z" agent="5.0 (Windows NT 10.0; Win64; x64) AppleWebKit/537.36 (KHTML, like Gecko) Chrome/97.0.4692.71 Safari/537.36" etag="z3jcHlML7YoqLfi3waES" version="16.2.7" type="github">
  <diagram id="Vunk2EmByTBR-5N6-evZ" name="第 1 页">
    <mxGraphModel dx="1221" dy="644" grid="1" gridSize="10" guides="1" tooltips="1" connect="1" arrows="1" fold="1" page="1" pageScale="1" pageWidth="1654" pageHeight="1169" math="0" shadow="0">
      <root>
        <mxCell id="0" />
        <mxCell id="1" parent="0" />
        <mxCell id="1DQnWTIHPoHocUyeO1WU-8" value="博客&lt;br&gt;&lt;br&gt;&lt;br&gt;&lt;br&gt;&lt;br&gt;" style="rounded=1;whiteSpace=wrap;html=1;fontSize=24;" vertex="1" parent="1">
          <mxGeometry x="450" y="70" width="180" height="194" as="geometry" />
        </mxCell>
        <mxCell id="1DQnWTIHPoHocUyeO1WU-7" value="代码&lt;br&gt;&lt;br&gt;&lt;br&gt;&lt;br&gt;&lt;br&gt;" style="rounded=1;whiteSpace=wrap;html=1;fontSize=24;" vertex="1" parent="1">
          <mxGeometry x="280" y="74" width="160" height="190" as="geometry" />
        </mxCell>
        <mxCell id="1DQnWTIHPoHocUyeO1WU-3" value="MySQL" style="rounded=0;whiteSpace=wrap;html=1;fontSize=24;" vertex="1" parent="1">
          <mxGeometry x="310" y="200" width="300" height="50" as="geometry" />
        </mxCell>
        <mxCell id="1DQnWTIHPoHocUyeO1WU-4" value="GitLab" style="rounded=0;whiteSpace=wrap;html=1;fontSize=24;" vertex="1" parent="1">
          <mxGeometry x="310" y="130" width="100" height="50" as="geometry" />
        </mxCell>
        <mxCell id="1DQnWTIHPoHocUyeO1WU-6" value="WordPress" style="rounded=0;whiteSpace=wrap;html=1;fontSize=24;" vertex="1" parent="1">
          <mxGeometry x="470" y="130" width="140" height="50" as="geometry" />
        </mxCell>
        <mxCell id="1DQnWTIHPoHocUyeO1WU-9" value="博客&lt;br&gt;&lt;br&gt;&lt;br&gt;&lt;br&gt;&lt;br&gt;" style="rounded=1;whiteSpace=wrap;html=1;fontSize=24;" vertex="1" parent="1">
          <mxGeometry x="450" y="380" width="180" height="194" as="geometry" />
        </mxCell>
        <mxCell id="1DQnWTIHPoHocUyeO1WU-10" value="代码&lt;br&gt;&lt;br&gt;&lt;br&gt;&lt;br&gt;&lt;br&gt;" style="rounded=1;whiteSpace=wrap;html=1;fontSize=24;" vertex="1" parent="1">
          <mxGeometry x="280" y="384" width="160" height="190" as="geometry" />
        </mxCell>
        <mxCell id="1DQnWTIHPoHocUyeO1WU-11" value="MySQL" style="rounded=0;whiteSpace=wrap;html=1;fontSize=24;" vertex="1" parent="1">
          <mxGeometry x="310" y="510" width="100" height="40" as="geometry" />
        </mxCell>
        <mxCell id="1DQnWTIHPoHocUyeO1WU-12" value="GitLab" style="rounded=0;whiteSpace=wrap;html=1;fontSize=24;" vertex="1" parent="1">
          <mxGeometry x="310" y="440" width="100" height="50" as="geometry" />
        </mxCell>
        <mxCell id="1DQnWTIHPoHocUyeO1WU-13" value="WordPress" style="rounded=0;whiteSpace=wrap;html=1;fontSize=24;" vertex="1" parent="1">
          <mxGeometry x="470" y="440" width="140" height="50" as="geometry" />
        </mxCell>
        <mxCell id="1DQnWTIHPoHocUyeO1WU-14" value="MySQL" style="rounded=0;whiteSpace=wrap;html=1;fontSize=24;" vertex="1" parent="1">
          <mxGeometry x="490" y="510" width="100" height="40" as="geometry" />
        </mxCell>
        <mxCell id="1DQnWTIHPoHocUyeO1WU-17" value="" style="endArrow=classic;html=1;rounded=0;fontSize=24;exitX=0;exitY=0.5;exitDx=0;exitDy=0;" edge="1" parent="1" source="1DQnWTIHPoHocUyeO1WU-12">
          <mxGeometry width="50" height="50" relative="1" as="geometry">
            <mxPoint x="120" y="490" as="sourcePoint" />
            <mxPoint x="200" y="465" as="targetPoint" />
          </mxGeometry>
        </mxCell>
        <mxCell id="1DQnWTIHPoHocUyeO1WU-18" value="Pod" style="text;html=1;align=center;verticalAlign=middle;resizable=0;points=[];autosize=1;strokeColor=none;fillColor=none;fontSize=24;" vertex="1" parent="1">
          <mxGeometry x="140" y="450" width="60" height="30" as="geometry" />
        </mxCell>
      </root>
    </mxGraphModel>
  </diagram>
</mxfile>
